<?xml version="1.0" encoding="utf-8"?>
<!-- Generator: Adobe Illustrator 27.3.1, SVG Export Plug-In . SVG Version: 6.00 Build 0)  -->
<svg version="1.1" id="Layer_1" xmlns="http://www.w3.org/2000/svg" xmlns:xlink="http://www.w3.org/1999/xlink" x="0px" y="0px"
	 viewBox="0 0 504.75 130.94" style="enable-background:new 0 0 504.75 130.94;" xml:space="preserve">
<style type="text/css">
	.st0{fill:#FFFFFF;}
	.st1{fill:#97C7AD;}
</style>
<g>
	<g>
		<g>
			<path class="st0" d="M209.51,52.38h2.41l0.21,5.13c1.2-3.51,4.4-5.87,8.22-5.87c4.5,0,7.12,2.3,8.17,5.66
				c1.41-3.25,4.24-5.66,8.64-5.66c6.13,0,8.69,4.03,8.69,9.64v17.28h-2.62V61.6c0-4.61-1.78-7.49-6.34-7.49
				c-4.92,0-7.8,4.35-7.8,9.64v14.82h-2.72V61.6c0-4.61-1.99-7.49-6.34-7.49c-5.03,0-7.91,4.71-7.91,10.32v14.14h-2.62V52.38z"/>
			<path class="st0" d="M256.2,75.63c-2.15-2.51-3.46-6.08-3.46-10.06c0-3.3,0.52-6.55,2.62-9.32c2.25-2.99,5.34-4.61,9.17-4.61
				c7.23,0,11.58,5.76,11.58,12.73c0,0.63,0,1-0.05,1.73h-20.69c0.1,5.81,3.51,10.68,9.38,10.68c4.14,0,7.39-2.72,8.01-6.08h2.72
				c-0.79,4.92-5.5,8.59-10.74,8.59C260.96,79.3,257.92,77.62,256.2,75.63z M273.37,63.74c-0.1-4.98-3.2-9.64-8.85-9.64
				c-5.55,0-9.01,4.5-9.11,9.64H273.37z"/>
			<path class="st0" d="M281.12,71.29c0-4.66,3.56-7.54,8.8-7.91l9.64-0.68v-2.3c0-4.4-3.19-6.29-7.23-6.29
				c-3.93,0-7.18,1.89-7.44,5.81h-2.62c0.37-5.39,4.71-8.28,9.95-8.28c5.97,0,9.95,2.93,9.95,8.96v12.94c0,1.78,0.26,2.83,2.04,2.83
				c0.21,0,0.52,0,0.73-0.05v2.3c-0.37,0.1-0.84,0.16-1.26,0.16c-3.25,0-4.14-2.46-4.14-5.24c-1.41,3.72-5.39,5.76-9.43,5.76
				C285.05,79.3,281.12,76.21,281.12,71.29z M299.56,66.47V65.1l-9.38,0.58c-4.03,0.26-6.39,2.46-6.39,5.55
				c0,3.67,2.83,5.66,6.55,5.66C296.94,76.89,299.56,71.55,299.56,66.47z"/>
			<path class="st0" d="M310.99,52.38h2.41l0.21,5.03c1.36-3.61,5.45-5.76,9.11-5.76c5.97,0,9.27,3.98,9.27,9.79v17.13h-2.62V61.7
				c0-4.4-2.25-7.49-6.91-7.49c-5.81,0-8.85,4.82-8.85,10.63v13.72h-2.62V52.38z"/>
			<path class="st0" d="M372.56,52.38l-6.7,26.19h-3.2l-7.91-22.84l-7.91,22.84h-3.2l-6.7-26.19h2.67l5.76,23.15l7.96-22.78h2.88
				l7.86,22.68l5.92-23.05H372.56z"/>
			<path class="st0" d="M381,40.64V57.2c1.47-3.35,5.34-5.55,9.01-5.55c5.97,0,9.38,3.77,9.38,9.64v17.28h-2.62V61.44
				c0-4.61-2.2-7.33-6.91-7.33c-6.39,0-8.85,5.71-8.85,11.37v13.09h-2.62V40.64H381z"/>
			<path class="st0" d="M410.75,41.43v3.88h-3.56v-3.88H410.75z M410.33,52.38v26.19h-2.67V52.38H410.33z"/>
			<path class="st0" d="M418.65,73.33V40.64h2.62v32.58c0,1.78,0.52,3.14,2.72,3.14c1.05,0,1.52-0.05,2.25-0.16v2.36
				c-0.58,0.16-1.26,0.31-2.36,0.31C420.54,78.88,418.65,77.15,418.65,73.33z"/>
			<path class="st0" d="M432.47,75.63c-2.15-2.51-3.46-6.08-3.46-10.06c0-3.3,0.52-6.55,2.62-9.32c2.25-2.99,5.34-4.61,9.17-4.61
				c7.23,0,11.58,5.76,11.58,12.73c0,0.63,0,1-0.05,1.73h-20.69c0.1,5.81,3.51,10.68,9.38,10.68c4.14,0,7.39-2.72,8.01-6.08h2.72
				c-0.79,4.92-5.5,8.59-10.74,8.59C437.24,79.3,434.2,77.62,432.47,75.63z M449.65,63.74c-0.1-4.98-3.2-9.64-8.85-9.64
				c-5.55,0-9.01,4.5-9.11,9.64H449.65z"/>
		</g>
	</g>
	<g>
		<g>
			<g>
				<path class="st1" d="M183.32,52.38v26.19h-26.19V52.38H183.32z"/>
			</g>
		</g>
		<g>
			<g>
				<path class="st1" d="M130.94,52.38v26.19h-26.19V52.38H130.94z"/>
			</g>
		</g>
		<g>
			<g>
				<path class="st1" d="M78.57,52.38v26.19H52.38V52.38H78.57z"/>
			</g>
		</g>
	</g>
</g>
</svg>
